<?xml version="1.0" encoding="UTF-8" standalone="no"?>
<svg
   width="158.75mm"
   height="158.75mm"
   version="1.1"
   viewBox="0 0 158.75 158.75"
   id="svg4"
   sodipodi:docname="a-circle.svg"
   inkscape:version="1.1.1 (3bf5ae0d25, 2021-09-20)"
   xmlns:inkscape="http://www.inkscape.org/namespaces/inkscape"
   xmlns:sodipodi="http://sodipodi.sourceforge.net/DTD/sodipodi-0.dtd"
   xmlns="http://www.w3.org/2000/svg"
   xmlns:svg="http://www.w3.org/2000/svg">
  <defs
     id="defs8" />
  <sodipodi:namedview
     id="namedview6"
     pagecolor="#ffffff"
     bordercolor="#666666"
     borderopacity="1.0"
     inkscape:pageshadow="2"
     inkscape:pageopacity="0.0"
     inkscape:pagecheckerboard="0"
     inkscape:document-units="mm"
     showgrid="false"
     inkscape:zoom="1.3933333"
     inkscape:cx="158.25359"
     inkscape:cy="300.35885"
     inkscape:window-width="1920"
     inkscape:window-height="1011"
     inkscape:window-x="0"
     inkscape:window-y="32"
     inkscape:window-maximized="1"
     inkscape:current-layer="svg4" />
  <path
     d="m79.375 0c-43.656 0-79.375 35.719-79.375 79.375s35.719 79.375 79.375 79.375 79.375-35.719 79.375-79.375-35.719-79.375-79.375-79.375zm10.574 17.816c29.567 4.9781 51.868 30.505 51.868 61.559 0 11.531-3.0777 22.298-8.4574 31.536zm-21.169 0.0036-43.4 93.072c-5.3729-9.2342-8.446-19.995-8.446-31.517 0-31.045 22.29-56.568 51.846-61.555zm10.585 17.367 20.111 43.129h-40.223zm-28.008 60.062h56.015l14.142 30.327c-11.081 10.103-25.85 16.239-42.14 16.239-16.296 0-31.071-6.142-42.153-16.252z"
     stroke-width=".26458"
     id="path2"
     style="fill:#a9a9b3;fill-opacity:1" />
</svg>
