<?xml version="1.0" encoding="UTF-8" standalone="no"?>
<!-- Generator: Adobe Illustrator 13.0.2, SVG Export Plug-In . SVG Version: 6.00 Build 14948)  -->

<svg
   version="1.1"
   id="Layer_1"
   x="0px"
   y="0px"
   width="23.4"
   height="23.552999"
   viewBox="-0.5 -0.101 23.4 23.552999"
   enable-background="new -0.5 -0.101 88 31"
   xml:space="preserve"
   sodipodi:docname="cc-zero.svg"
   inkscape:version="1.1.2 (0a00cf5339, 2022-02-04)"
   xmlns:inkscape="http://www.inkscape.org/namespaces/inkscape"
   xmlns:sodipodi="http://sodipodi.sourceforge.net/DTD/sodipodi-0.dtd"
   xmlns="http://www.w3.org/2000/svg"
   xmlns:svg="http://www.w3.org/2000/svg"><defs
   id="defs49">
	
	
	
	
	
	

		
		
		
	</defs><sodipodi:namedview
   id="namedview47"
   pagecolor="#ffffff"
   bordercolor="#666666"
   borderopacity="1.0"
   inkscape:pageshadow="2"
   inkscape:pageopacity="0.0"
   inkscape:pagecheckerboard="0"
   showgrid="false"
   inkscape:zoom="10.100378"
   inkscape:cx="42.919188"
   inkscape:cy="-8.1680115"
   inkscape:window-width="1920"
   inkscape:window-height="1011"
   inkscape:window-x="0"
   inkscape:window-y="32"
   inkscape:window-maximized="1"
   inkscape:current-layer="Layer_1"
   fit-margin-top="0"
   fit-margin-left="0"
   fit-margin-right="0"
   fit-margin-bottom="0" />
<path
   id="text2809_4_"
   d="m 11.2,4.897 c -3.862,0 -4.834,3.669 -4.834,6.779 0,3.111 0.971,6.779 4.834,6.779 3.863,0 4.834,-3.67 4.834,-6.779 0,-3.111 -0.971,-6.779 -4.834,-6.779 z m 0,2.555 c 0.157,0 0.3,0.024 0.435,0.06 0.278,0.24 0.414,0.573 0.147,1.038 L 9.21,13.31 C 9.131,12.707 9.119,12.115 9.119,11.676 c 0,-1.37 0.094,-4.224 2.081,-4.224 z m 1.926,2.193 c 0.137,0.731 0.155,1.493 0.155,2.03 0,1.37 -0.094,4.223 -2.08,4.223 -0.156,0 -0.301,-0.017 -0.435,-0.049 C 10.741,15.839 10.717,15.83 10.692,15.824 10.652,15.812 10.608,15.8 10.57,15.783 10.128,15.595 9.849,15.252 10.251,14.644 Z"
   style="fill:#a9a9b3;fill-opacity:1" /><path
   id="path2815_4_"
   d="m 11.175,-0.101 c -3.245,0 -5.98,1.137 -8.21,3.422 -1.128,1.135 -1.99,2.431 -2.589,3.876 -0.585,1.43 -0.876,2.921 -0.876,4.478 0,1.57 0.291,3.062 0.876,4.479 0.585,1.417 1.434,2.69 2.548,3.826 1.128,1.121 2.395,1.985 3.802,2.588 1.421,0.59 2.903,0.884 4.449,0.884 1.547,0 3.05,-0.304 4.499,-0.907 1.448,-0.604 2.74,-1.471 3.883,-2.605 1.101,-1.078 1.934,-2.317 2.49,-3.719 C 22.618,14.806 22.9,13.289 22.9,11.677 22.9,10.079 22.619,8.565 22.048,7.149 21.477,5.72 20.641,4.456 19.541,3.348 17.243,1.046 14.449,-0.101 11.175,-0.101 Z m 0.049,2.119 c 2.646,0 4.904,0.944 6.784,2.836 0.906,0.912 1.6,1.954 2.073,3.119 0.473,1.164 0.713,2.398 0.713,3.703 0,2.707 -0.92,4.952 -2.744,6.746 -0.948,0.927 -2.012,1.638 -3.196,2.128 -1.17,0.489 -2.375,0.732 -3.63,0.732 -1.268,0 -2.481,-0.239 -3.638,-0.717 C 6.43,20.076 5.393,19.374 4.473,18.461 3.553,17.536 2.844,16.491 2.343,15.326 1.856,14.148 1.605,12.935 1.605,11.673 1.605,10.397 1.856,9.176 2.343,8.011 2.844,6.833 3.554,5.776 4.473,4.836 6.297,2.96 8.55,2.018 11.224,2.018 Z"
   style="fill:#a9a9b3;fill-opacity:1" />
</svg>
