<?xml version="1.0" encoding="UTF-8" standalone="no"?>
<svg
   width="158.75mm"
   height="222.50761mm"
   version="1.1"
   viewBox="0 0 158.75 222.50762"
   id="svg4"
   sodipodi:docname="alt_1.svg"
   inkscape:version="1.1.2 (0a00cf5339, 2022-02-04)"
   xmlns:inkscape="http://www.inkscape.org/namespaces/inkscape"
   xmlns:sodipodi="http://sodipodi.sourceforge.net/DTD/sodipodi-0.dtd"
   xmlns="http://www.w3.org/2000/svg"
   xmlns:svg="http://www.w3.org/2000/svg">
  <defs
     id="defs8" />
  <sodipodi:namedview
     id="namedview6"
     pagecolor="#ffffff"
     bordercolor="#666666"
     borderopacity="1.0"
     inkscape:pageshadow="2"
     inkscape:pageopacity="0.0"
     inkscape:pagecheckerboard="0"
     inkscape:document-units="mm"
     showgrid="false"
     inkscape:zoom="0.70710678"
     inkscape:cx="536.69404"
     inkscape:cy="573.4636"
     inkscape:window-width="1920"
     inkscape:window-height="1011"
     inkscape:window-x="0"
     inkscape:window-y="32"
     inkscape:window-maximized="1"
     inkscape:current-layer="svg4"
     fit-margin-top="0"
     fit-margin-left="0"
     fit-margin-right="0"
     fit-margin-bottom="0"
     showguides="true"
     inkscape:guide-bbox="true">
    <sodipodi:guide
       position="113.3274,8.2060461"
       orientation="0,-1"
       id="guide1068" />
    <sodipodi:guide
       position="108.83148,31.026337"
       orientation="0,-1"
       id="guide1602" />
    <sodipodi:guide
       position="108.71895,31.122915"
       orientation="1,0"
       id="guide1604" />
    <sodipodi:guide
       position="50.027319,31.005174"
       orientation="1,0"
       id="guide1606" />
    <sodipodi:guide
       position="81.006623,-2.4821759"
       orientation="1,0"
       id="guide2026" />
    <sodipodi:guide
       position="77.7434,-2.3089757"
       orientation="1,0"
       id="guide2028" />
    <sodipodi:guide
       position="81.174367,-2.7352202"
       orientation="0,-1"
       id="guide2068" />
  </sodipodi:namedview>
  <path
     id="path2"
     style="fill:#a9a9b3;fill-opacity:1;stroke-width:0.264583"
     d="m 79.374999,0 c -2.182654,0 -4.344339,0.09310163 -6.483842,0.26820069 -0.05599,0.004936 -0.111969,0.009931 -0.167947,0.0149863 -2.113248,0.1774939 -4.203139,0.43975075 -6.267318,0.78134761 -0.09667,0.015841 -0.193302,0.031861 -0.289906,0.048059 -2.028328,0.3434647 -4.031221,0.7637981 -6.005317,1.2593546 -0.152384,0.036928 -0.30466,0.074307 -0.456821,0.1121379 C 57.795157,2.9753938 55.913736,3.5363189 54.062333,4.1640868 53.68704,4.2930529 53.312721,4.4248316 52.939404,4.5594116 51.411523,5.1034084 49.90312,5.6894277 48.419265,6.3231283 47.688727,6.6363926 46.962938,6.9606125 46.242139,7.2956787 45.196402,7.7800815 44.161392,8.2838051 43.140518,8.8118653 28.395276,16.387528 16.391965,28.389754 8.8149656,43.134316 8.2835675,44.161424 7.7766782,45.202781 7.2894774,46.255058 6.9569776,46.970762 6.6351699,47.691383 6.3241618,48.416683 5.6910467,49.899022 5.1055904,51.40589 4.5619955,52.932168 4.4250821,53.311652 4.291064,53.692176 4.1599527,54.073702 3.5334731,55.92224 2.9740219,57.800798 2.4835693,59.706433 c -0.037475,0.15027 -0.07451,0.300648 -0.1111043,0.451135 -0.4960918,1.975895 -0.9161529,3.980776 -1.2598714,6.011003 -0.016194,0.09523 -0.032213,0.190484 -0.048059,0.285771 -0.34180235,2.065168 -0.60380806,4.15613 -0.78134765,6.270416 -0.005054,0.05529 -0.0100489,0.110582 -0.0149863,0.165883 C 0.09307388,75.030311 0,77.192171 0,79.374999 v 5.29e-4 0.0011 c 1.2906578e-4,6.645709 0.83243411,13.105821 2.390035,19.285643 9.830798,42.785119 47.637283,92.819089 66.361147,115.640409 8.992216,10.94023 12.255439,10.94023 21.248716,-0.002 18.719052,-22.81972 56.529452,-72.85451 66.360062,-115.638808 1.5576,-6.179823 2.38991,-12.639934 2.39004,-19.285643 v -0.0011 -5.4e-4 c 0,-0.730626 -0.0116,-1.45883 -0.0315,-2.184879 -0.006,-0.182613 -0.0135,-0.365204 -0.0212,-0.547769 -0.0183,-0.534483 -0.0392,-1.068068 -0.0682,-1.599904 -0.0147,-0.248465 -0.0305,-0.496858 -0.0475,-0.745175 -0.0307,-0.479457 -0.0631,-0.958395 -0.10232,-1.435571 -0.0211,-0.248322 -0.0433,-0.496544 -0.0667,-0.744657 -0.0438,-0.477427 -0.0914,-0.953841 -0.14367,-1.428853 -0.0274,-0.248007 -0.056,-0.495885 -0.0858,-0.743625 -0.0564,-0.470691 -0.11724,-0.93999 -0.1819,-1.408181 -0.0344,-0.253902 -0.0701,-0.507637 -0.10697,-0.761195 -0.0692,-0.467339 -0.1443,-0.932614 -0.22169,-1.397331 -0.0406,-0.251174 -0.0825,-0.502153 -0.12558,-0.752925 -0.0729,-0.41279 -0.15223,-0.823418 -0.23151,-1.234032 -0.059,-0.316283 -0.12003,-0.632204 -0.18293,-0.947746 -0.0164,-0.07975 -0.0355,-0.158562 -0.0522,-0.238228 C 150.6371,32.245829 126.43197,8.0646589 95.466523,1.6520955 l -0.146762,-0.032039 c -0.0028,-5.635e-4 -0.0055,-9.869e-4 -0.0083,-0.00155 C 94.988405,1.5539636 94.664905,1.4914339 94.341023,1.4309202 93.937964,1.3532011 93.534882,1.2756045 93.129729,1.2040607 92.874141,1.1600881 92.618339,1.1173684 92.362334,1.0759031 91.902422,0.99937738 91.441951,0.92530289 90.979473,0.85679506 90.722475,0.81918722 90.465298,0.78284103 90.207943,0.74775781 89.743189,0.68360953 89.277313,0.62339103 88.810096,0.56740705 88.559604,0.53727344 88.30897,0.50833432 88.058203,0.48059064 87.58594,0.42859832 87.112268,0.38154358 86.637618,0.33796372 86.388473,0.31456423 86.139217,0.29234315 85.889861,0.2713011 85.396386,0.23071862 84.90111,0.19677377 84.405196,0.16536442 84.179777,0.14993231 83.954294,0.13546278 83.728752,0.12195622 83.183528,0.09210606 82.636547,0.0703324 82.088542,0.05167627 81.912348,0.0443711 81.73613,0.03765314 81.559891,0.03152246 80.833829,0.01164354 80.105625,0 79.374999,0 Z m 10.57403,17.815967 c 29.567001,4.9781 51.868151,30.505032 51.868151,61.559032 0,11.530999 -3.07766,22.298061 -8.45736,31.536061 z m -21.169248,0.0036 -43.399935,93.071833 c -5.3729,-9.2342 -8.445996,-19.994936 -8.445996,-31.516934 0,-31.045001 22.28993,-56.567899 51.845931,-61.554899 z M 79.36518,35.186482 99.476098,78.315631 H 59.25323 Z M 51.357072,95.248448 h 56.015188 l 14.14177,30.327352 c -11.081,10.10299 -25.850064,16.2388 -42.140066,16.2388 -16.295999,0 -31.07098,-6.14224 -42.152982,-16.25224 z"
     sodipodi:nodetypes="sccccccccccccccccccccccscsccccscscccccccccccccccccccccccccccccccscsccccsccccccccscc" />
</svg>
